<svg width="40" height="40" viewBox="0 0 40 40" fill="none" xmlns="http://www.w3.org/2000/svg">
<rect width="40" height="40" rx="20" fill="#F6F6F7"/>
<path d="M24.6328 25.0225V27H15.8789V25.3125L20.0186 20.874C20.4346 20.4111 20.7627 20.0039 21.0029 19.6523C21.2432 19.2949 21.416 18.9756 21.5215 18.6943C21.6328 18.4072 21.6885 18.1348 21.6885 17.877C21.6885 17.4902 21.624 17.1592 21.4951 16.8838C21.3662 16.6025 21.1758 16.3857 20.9238 16.2334C20.6777 16.0811 20.373 16.0049 20.0098 16.0049C19.623 16.0049 19.2891 16.0986 19.0078 16.2861C18.7324 16.4736 18.5215 16.7344 18.375 17.0684C18.2344 17.4023 18.1641 17.7803 18.1641 18.2021H15.624C15.624 17.4404 15.8057 16.7432 16.1689 16.1104C16.5322 15.4717 17.0449 14.9648 17.707 14.5898C18.3691 14.209 19.1543 14.0186 20.0625 14.0186C20.959 14.0186 21.7148 14.165 22.3301 14.458C22.9512 14.7451 23.4199 15.1611 23.7363 15.7061C24.0586 16.2451 24.2197 16.8896 24.2197 17.6396C24.2197 18.0615 24.1523 18.4746 24.0176 18.8789C23.8828 19.2773 23.6895 19.6758 23.4375 20.0742C23.1914 20.4668 22.8926 20.8652 22.541 21.2695C22.1895 21.6738 21.7998 22.0928 21.3721 22.5264L19.1484 25.0225H24.6328Z" fill="black"/>
</svg>
