<svg width="40" height="40" viewBox="0 0 40 40" fill="none" xmlns="http://www.w3.org/2000/svg">
<rect width="40" height="40" rx="20" fill="#F6F6F7"/>
<path d="M18.4717 19.5029H19.8252C20.2588 19.5029 20.6162 19.4297 20.8975 19.2832C21.1787 19.1309 21.3867 18.9199 21.5215 18.6504C21.6621 18.375 21.7324 18.0557 21.7324 17.6924C21.7324 17.3643 21.668 17.0742 21.5391 16.8223C21.416 16.5645 21.2256 16.3652 20.9678 16.2246C20.71 16.0781 20.3848 16.0049 19.9922 16.0049C19.6816 16.0049 19.3945 16.0664 19.1309 16.1895C18.8672 16.3125 18.6562 16.4854 18.498 16.708C18.3398 16.9307 18.2607 17.2002 18.2607 17.5166H15.7207C15.7207 16.8135 15.9082 16.2012 16.2832 15.6797C16.6641 15.1582 17.1738 14.751 17.8125 14.458C18.4512 14.165 19.1543 14.0186 19.9219 14.0186C20.7891 14.0186 21.5479 14.1592 22.1982 14.4404C22.8486 14.7158 23.3555 15.123 23.7188 15.6621C24.082 16.2012 24.2637 16.8691 24.2637 17.666C24.2637 18.0703 24.1699 18.4629 23.9824 18.8438C23.7949 19.2188 23.5254 19.5586 23.1738 19.8633C22.8281 20.1621 22.4062 20.4023 21.9082 20.584C21.4102 20.7598 20.8506 20.8477 20.2295 20.8477H18.4717V19.5029ZM18.4717 21.4277V20.1182H20.2295C20.9268 20.1182 21.5391 20.1973 22.0664 20.3555C22.5938 20.5137 23.0361 20.7422 23.3936 21.041C23.751 21.334 24.0205 21.6826 24.2021 22.0869C24.3838 22.4854 24.4746 22.9277 24.4746 23.4141C24.4746 24.0117 24.3604 24.5449 24.1318 25.0137C23.9033 25.4766 23.5811 25.8691 23.165 26.1914C22.7549 26.5137 22.2744 26.7598 21.7236 26.9297C21.1729 27.0938 20.5723 27.1758 19.9219 27.1758C19.3828 27.1758 18.8525 27.1025 18.3311 26.9561C17.8154 26.8037 17.3467 26.5781 16.9248 26.2793C16.5088 25.9746 16.1748 25.5938 15.9229 25.1367C15.6768 24.6738 15.5537 24.126 15.5537 23.4932H18.0938C18.0938 23.8213 18.1758 24.1143 18.3398 24.3721C18.5039 24.6299 18.7295 24.832 19.0166 24.9785C19.3096 25.125 19.6348 25.1982 19.9922 25.1982C20.3965 25.1982 20.7422 25.125 21.0293 24.9785C21.3223 24.8262 21.5449 24.6152 21.6973 24.3457C21.8555 24.0703 21.9346 23.751 21.9346 23.3877C21.9346 22.9189 21.8496 22.5439 21.6797 22.2627C21.5098 21.9756 21.2666 21.7646 20.9502 21.6299C20.6338 21.4951 20.2588 21.4277 19.8252 21.4277H18.4717Z" fill="black"/>
</svg>
