<svg width="34" height="42" viewBox="0 0 34 42" fill="none" xmlns="http://www.w3.org/2000/svg">
<path d="M27.9896 22.1218C28.03 18.9953 29.7162 16.0369 32.3913 14.3994C30.7037 11.9995 27.8771 10.4779 24.9364 10.3863C21.7999 10.0585 18.7591 12.2552 17.1608 12.2552C15.5315 12.2552 13.0706 10.4188 10.4207 10.4731C6.96658 10.5843 3.74649 12.5397 2.066 15.5467C-1.5464 21.7744 1.14812 30.927 4.6085 35.9611C6.3398 38.4261 8.36319 41.1796 11.0108 41.0819C13.6016 40.9749 14.5692 39.4369 17.6965 39.4369C20.7948 39.4369 21.7026 41.0819 24.4039 41.0198C27.184 40.9749 28.9355 38.5439 30.6061 36.0555C31.85 34.2991 32.8072 32.3579 33.4422 30.3038C30.1752 28.9278 27.9934 25.654 27.9896 22.1218Z" fill="#090909"/>
<path d="M22.8873 7.07569C24.4031 5.26376 25.1498 2.93484 24.969 0.583496C22.6532 0.825693 20.514 1.92779 18.9778 3.6702C17.4755 5.37262 16.6937 7.66057 16.8415 9.92203C19.1581 9.94579 21.4356 8.87356 22.8873 7.07569Z" fill="#090909"/>
</svg>
