<svg width="92" height="92" viewBox="0 0 92 92" fill="none" xmlns="http://www.w3.org/2000/svg">
<g filter="url(#filter0_d_1_2607)">
<g clip-path="url(#clip0_1_2607)">
<rect x="16" y="16" width="60" height="60" rx="14" fill="white"/>
<g filter="url(#filter1_f_1_2607)">
<path d="M67.942 73.7969C79.8801 69.3491 86.4743 62.4855 91.0536 49.7411C100.33 23.9231 6.78565 44.6295 26.5474 64.0197C39.0075 76.2456 52.6931 79.4781 67.942 73.7969Z" fill="#CF1717"/>
</g>
<g filter="url(#filter2_f_1_2607)">
<path d="M63.06 35.6866C56.0404 33.1106 51.4709 34.0765 43.9939 33.8523C29.5607 33.4195 21.5805 38.7078 7.19578 37.4538C-22.1554 34.8951 57.5169 -4.35841 79.3199 15.3909C93.026 27.806 107.145 71.074 91.595 61.046C85.385 57.0412 84.531 51.849 79.0284 46.9227C73.3495 41.8387 70.2236 38.3154 63.06 35.6866Z" fill="#F5DB35"/>
</g>
<g filter="url(#filter3_f_1_2607)">
<ellipse cx="55.0555" cy="30.284" rx="55.0555" ry="30.284" transform="matrix(0.993652 -0.112497 0.113259 0.993565 -2 19.3872)" fill="#F54F35"/>
</g>
<g filter="url(#filter4_f_1_2607)">
<path d="M64.9734 58.9837C53.6414 59.7267 46.2455 63.8954 39.0516 73.5943C24.4783 93.2425 109.625 99.4841 97.7665 77.8983C90.2898 64.2881 79.4479 58.0347 64.9734 58.9837Z" fill="#C00CF2"/>
</g>
<path d="M42 61.1875C41.5813 61.1875 41.2137 60.91 41.0987 60.5075L40.125 57.0988C39.2587 54.0675 36.9312 51.74 33.9012 50.875L30.4925 49.9013C30.09 49.7863 29.8125 49.4187 29.8125 49C29.8125 48.5813 30.09 48.2137 30.4925 48.0987L33.9012 47.125C36.9325 46.2587 39.2587 43.9325 40.125 40.9012L41.0987 37.4925C41.2137 37.09 41.5813 36.8125 42 36.8125C42.4187 36.8125 42.7863 37.09 42.9013 37.4925L43.875 40.9012C44.7413 43.9325 47.0688 46.26 50.0988 47.125L53.5075 48.0987C53.91 48.2137 54.1875 48.5813 54.1875 49C54.1875 49.4187 53.91 49.7863 53.5075 49.9013L50.0988 50.875C47.0675 51.7413 44.7413 54.0675 43.875 57.0988L42.9013 60.5075C42.7863 60.91 42.4187 61.1875 42 61.1875ZM34.1625 49L34.4163 49.0725C38.0738 50.1175 40.8825 52.9262 41.9287 56.585L42.0013 56.8375L42.0737 56.585C43.12 52.9262 45.9275 50.1188 49.5863 49.0725L49.8375 49L49.5837 48.9275C45.9262 47.8825 43.1175 45.0738 42.0713 41.415L42 41.1637L41.9275 41.4163C40.8812 45.075 38.0738 47.8825 34.415 48.9287L34.1625 49Z" fill="white"/>
<path d="M47.5 36.1562C47.3744 36.1562 47.2641 36.073 47.2296 35.9522L46.9375 34.9296C46.6776 34.0203 45.9794 33.322 45.0704 33.0625L44.0478 32.7704C43.927 32.7359 43.8438 32.6256 43.8438 32.5C43.8438 32.3744 43.927 32.2641 44.0478 32.2296L45.0704 31.9375C45.9797 31.6776 46.6776 30.9797 46.9375 30.0704L47.2296 29.0478C47.2641 28.927 47.3744 28.8438 47.5 28.8438C47.6256 28.8438 47.7359 28.927 47.7704 29.0478L48.0625 30.0704C48.3224 30.9797 49.0206 31.678 49.9296 31.9375L50.9522 32.2296C51.073 32.2641 51.1562 32.3744 51.1562 32.5C51.1562 32.6256 51.073 32.7359 50.9522 32.7704L49.9296 33.0625C49.0203 33.3224 48.3224 34.0203 48.0625 34.9296L47.7704 35.9522C47.7359 36.073 47.6256 36.1562 47.5 36.1562ZM45.1488 32.5L45.2249 32.5218C46.3221 32.8353 47.1647 33.6779 47.4786 34.7755L47.5004 34.8512L47.5221 34.7755C47.836 33.6779 48.6783 32.8356 49.7759 32.5218L49.8512 32.5L49.7751 32.4782C48.6779 32.1647 47.8353 31.3221 47.5214 30.2245L47.5 30.1491L47.4782 30.2249C47.1644 31.3225 46.3221 32.1647 45.2245 32.4786L45.1488 32.5Z" fill="white"/>
<path d="M56.5 45.5938C56.2906 45.5938 56.1069 45.455 56.0494 45.2537L55.5625 43.5494C55.1294 42.0338 53.9656 40.87 52.4506 40.4375L50.7463 39.9506C50.545 39.8931 50.4062 39.7094 50.4062 39.5C50.4062 39.2906 50.545 39.1069 50.7463 39.0494L52.4506 38.5625C53.9662 38.1294 55.1294 36.9662 55.5625 35.4506L56.0494 33.7463C56.1069 33.545 56.2906 33.4062 56.5 33.4062C56.7094 33.4062 56.8931 33.545 56.9506 33.7463L57.4375 35.4506C57.8706 36.9662 59.0344 38.13 60.5494 38.5625L62.2537 39.0494C62.455 39.1069 62.5938 39.2906 62.5938 39.5C62.5938 39.7094 62.455 39.8931 62.2537 39.9506L60.5494 40.4375C59.0338 40.8706 57.8706 42.0338 57.4375 43.5494L56.9506 45.2537C56.8931 45.455 56.7094 45.5938 56.5 45.5938ZM52.5813 39.5L52.7081 39.5363C54.5369 40.0588 55.9412 41.4631 56.4644 43.2925L56.5006 43.4187L56.5369 43.2925C57.06 41.4631 58.4637 40.0594 60.2931 39.5363L60.4187 39.5L60.2919 39.4637C58.4631 38.9412 57.0588 37.5369 56.5356 35.7075L56.5 35.5819L56.4637 35.7081C55.9406 37.5375 54.5369 38.9412 52.7075 39.4644L52.5813 39.5Z" fill="white"/>
</g>
</g>
<defs>
<filter id="filter0_d_1_2607" x="0.200001" y="0.200001" width="91.6" height="91.6" filterUnits="userSpaceOnUse" color-interpolation-filters="sRGB">
<feFlood flood-opacity="0" result="BackgroundImageFix"/>
<feColorMatrix in="SourceAlpha" type="matrix" values="0 0 0 0 0 0 0 0 0 0 0 0 0 0 0 0 0 0 127 0" result="hardAlpha"/>
<feMorphology radius="2" operator="erode" in="SourceAlpha" result="effect1_dropShadow_1_2607"/>
<feOffset/>
<feGaussianBlur stdDeviation="8.9"/>
<feComposite in2="hardAlpha" operator="out"/>
<feColorMatrix type="matrix" values="0 0 0 0 0 0 0 0 0 0 0 0 0 0 0 0 0 0 0.25 0"/>
<feBlend mode="normal" in2="BackgroundImageFix" result="effect1_dropShadow_1_2607"/>
<feBlend mode="normal" in="SourceGraphic" in2="effect1_dropShadow_1_2607" result="shape"/>
</filter>
<filter id="filter1_f_1_2607" x="-16.2025" y="-2.34106" width="147.905" height="118.851" filterUnits="userSpaceOnUse" color-interpolation-filters="sRGB">
<feFlood flood-opacity="0" result="BackgroundImageFix"/>
<feBlend mode="normal" in="SourceGraphic" in2="BackgroundImageFix" result="shape"/>
<feGaussianBlur stdDeviation="20" result="effect1_foregroundBlur_1_2607"/>
</filter>
<filter id="filter2_f_1_2607" x="-39.2178" y="-30.1438" width="177.617" height="132.684" filterUnits="userSpaceOnUse" color-interpolation-filters="sRGB">
<feFlood flood-opacity="0" result="BackgroundImageFix"/>
<feBlend mode="normal" in="SourceGraphic" in2="BackgroundImageFix" result="shape"/>
<feGaussianBlur stdDeviation="20" result="effect1_foregroundBlur_1_2607"/>
</filter>
<filter id="filter3_f_1_2607" x="-38.6794" y="-27.4434" width="189.631" height="141.452" filterUnits="userSpaceOnUse" color-interpolation-filters="sRGB">
<feFlood flood-opacity="0" result="BackgroundImageFix"/>
<feBlend mode="normal" in="SourceGraphic" in2="BackgroundImageFix" result="shape"/>
<feGaussianBlur stdDeviation="20" result="effect1_foregroundBlur_1_2607"/>
</filter>
<filter id="filter4_f_1_2607" x="-2.6322" y="18.8899" width="141.536" height="112.568" filterUnits="userSpaceOnUse" color-interpolation-filters="sRGB">
<feFlood flood-opacity="0" result="BackgroundImageFix"/>
<feBlend mode="normal" in="SourceGraphic" in2="BackgroundImageFix" result="shape"/>
<feGaussianBlur stdDeviation="20" result="effect1_foregroundBlur_1_2607"/>
</filter>
<clipPath id="clip0_1_2607">
<rect x="16" y="16" width="60" height="60" rx="14" fill="white"/>
</clipPath>
</defs>
</svg>
