<svg width="16" height="16" viewBox="0 0 16 16" fill="none" xmlns="http://www.w3.org/2000/svg">
<path d="M13.4981 3.66536L11.7074 2.33203C11.5648 2.22536 11.3881 2.16667 11.2094 2.16667H8.50008V2C8.50008 1.724 8.27608 1.5 8.00008 1.5C7.72408 1.5 7.50008 1.724 7.50008 2V2.16667H5.00008C4.06075 2.16667 3.50008 2.72733 3.50008 3.66667V5C3.50008 5.93933 4.06075 6.5 5.00008 6.5H7.50008V7.5H4.79075C4.61275 7.5 4.43608 7.5587 4.29342 7.66536L2.50209 8.9987C2.28942 9.15736 2.16675 9.40133 2.16675 9.66667C2.16675 9.932 2.28942 10.176 2.50209 10.3346L4.29274 11.668C4.43541 11.7746 4.61208 11.8333 4.79075 11.8333H7.50008V13.5H6.00008C5.72408 13.5 5.50008 13.724 5.50008 14C5.50008 14.276 5.72408 14.5 6.00008 14.5H10.0001C10.2761 14.5 10.5001 14.276 10.5001 14C10.5001 13.724 10.2761 13.5 10.0001 13.5H8.50008V11.8333H11.0001C11.9394 11.8333 12.5001 11.2727 12.5001 10.3333V9C12.5001 8.06067 11.9394 7.5 11.0001 7.5H8.50008V6.5H11.2094C11.3874 6.5 11.5641 6.4413 11.7067 6.33464L13.4981 5.0013C13.7107 4.84264 13.8334 4.59867 13.8334 4.33333C13.8334 4.068 13.7107 3.82403 13.4981 3.66536ZM11.5001 9V10.3333C11.5001 10.726 11.3927 10.8333 11.0001 10.8333H4.84675L3.27942 9.66667L4.84675 8.5H11.0001C11.3927 8.5 11.5001 8.60733 11.5001 9ZM11.1534 5.5H5.00008C4.60741 5.5 4.50008 5.39267 4.50008 5V3.66667C4.50008 3.274 4.60741 3.16667 5.00008 3.16667H11.1534L12.7207 4.33333L11.1534 5.5Z" fill="#1F1F1F"/>
</svg>
