<svg width="16" height="16" viewBox="0 0 16 16" fill="none" xmlns="http://www.w3.org/2000/svg">
<path d="M14.7833 3.34334C14.45 2.90067 13.9146 2.62535 13.1912 2.52335L6.15055 1.5367C5.42789 1.4347 4.83993 1.55136 4.3986 1.88403C3.95593 2.21736 3.67995 2.75268 3.57861 3.47468L3.48055 4.16544H3.11125C1.64258 4.16544 0.833252 4.9741 0.833252 6.44343V12.2221C0.833252 13.6914 1.64258 14.5001 3.11125 14.5001H10.2232C11.4959 14.5001 12.2713 13.8907 12.4566 12.7733C13.496 12.6893 14.1579 12.0147 14.3306 10.8153L15.1299 5.09545C15.2332 4.37478 15.116 3.78534 14.7833 3.34334ZM11.502 12.2221C11.502 13.1301 11.1312 13.5001 10.2232 13.5001H3.11125C2.20391 13.5001 1.83325 13.1301 1.83325 12.2221V6.44343C1.83325 5.53543 2.20391 5.16544 3.11125 5.16544H10.2232C11.1312 5.16544 11.502 5.53543 11.502 6.44343V12.2221ZM14.1399 4.95613L13.3406 10.6754C13.2432 11.3467 12.9913 11.6847 12.502 11.7673V6.44343C12.502 4.9741 11.6926 4.16544 10.2232 4.16544H4.48991L4.56795 3.61547C4.63195 3.1648 4.77659 2.85069 4.99992 2.68269C5.22192 2.51536 5.56258 2.4621 6.01058 2.52677L13.0519 3.51342C13.5026 3.57742 13.8159 3.72207 13.9839 3.94474C14.1519 4.16674 14.2039 4.5068 14.1399 4.95613ZM8.83325 9.33341C8.83325 9.60941 8.60925 9.83341 8.33325 9.83341H7.16659V11.0001C7.16659 11.2761 6.94259 11.5001 6.66659 11.5001C6.39059 11.5001 6.16659 11.2761 6.16659 11.0001V9.83341H4.99992C4.72392 9.83341 4.49992 9.60941 4.49992 9.33341C4.49992 9.05741 4.72392 8.83341 4.99992 8.83341H6.16659V7.66674C6.16659 7.39074 6.39059 7.16674 6.66659 7.16674C6.94259 7.16674 7.16659 7.39074 7.16659 7.66674V8.83341H8.33325C8.60925 8.83341 8.83325 9.05741 8.83325 9.33341Z" fill="#1F1F1F"/>
</svg>
