<svg width="16" height="16" viewBox="0 0 16 16" fill="none" xmlns="http://www.w3.org/2000/svg">
<path d="M12 12.5001C11.724 12.5001 11.5 12.2761 11.5 12.0001C11.5 11.7241 11.724 11.5001 12 11.5001C13.0513 11.5001 13.5 11.0514 13.5 10.0001V4.66675C13.5 3.61541 13.0513 3.16675 12 3.16675H4C2.94867 3.16675 2.5 3.61541 2.5 4.66675V10.0001C2.5 11.0514 2.94867 11.5001 4 11.5001C4.276 11.5001 4.5 11.7241 4.5 12.0001C4.5 12.2761 4.276 12.5001 4 12.5001C2.388 12.5001 1.5 11.6121 1.5 10.0001V4.66675C1.5 3.05475 2.388 2.16675 4 2.16675H12C13.612 2.16675 14.5 3.05475 14.5 4.66675V10.0001C14.5 11.6121 13.612 12.5001 12 12.5001ZM11.0413 13.8534C11.2413 13.4528 11.1987 12.9814 10.93 12.6241L8.93197 9.96672C8.48663 9.37338 7.51263 9.37405 7.0673 9.96672L5.06934 12.6248C4.80067 12.9821 4.75801 13.4534 4.95801 13.8541C5.15734 14.2528 5.55737 14.5007 6.00203 14.5007H9.99666C10.442 14.5001 10.8427 14.2521 11.0413 13.8534ZM8.13265 10.5675L10.1307 13.2253C10.1867 13.2993 10.1646 13.3715 10.1466 13.4068C10.1293 13.4415 10.0867 13.5001 9.99666 13.5001H6.00203C5.91203 13.5001 5.86997 13.4415 5.85197 13.4068C5.83464 13.3708 5.812 13.2993 5.868 13.2253L7.86597 10.5675C7.9093 10.5095 7.96803 10.5007 7.9987 10.5007C8.02936 10.5007 8.08932 10.5088 8.13265 10.5675Z" fill="#1F1F1F"/>
</svg>
