<svg width="40" height="40" viewBox="0 0 40 40" fill="none" xmlns="http://www.w3.org/2000/svg">
<path d="M20.6134 34.5833C19.6601 34.5833 18.765 34.1266 18.2017 33.33L14.1699 27.6183C14.1033 27.5233 14.0117 27.4716 13.8767 27.47L6.6451 27.5783C6.6301 27.5783 6.61327 27.5783 6.59994 27.5783C5.52327 27.5783 4.55494 26.9867 4.06494 26.0267C3.56661 25.0517 3.6667 23.9 4.3217 23.02L8.66496 17.2066C8.73496 17.1133 8.75497 16.99 8.71663 16.8783L6.47827 10.2417C6.11494 9.16502 6.39003 7.99662 7.19503 7.19328C7.99669 6.39162 9.15999 6.11503 10.2433 6.47836L16.8783 8.71662C16.9916 8.75329 17.1134 8.73332 17.2034 8.66332L23.0149 4.31995C23.8899 3.66329 25.0451 3.56497 26.0201 4.0633C26.9951 4.55997 27.5901 5.54836 27.5751 6.64336L27.4666 13.8784C27.465 13.995 27.5199 14.1033 27.6149 14.17L33.3301 18.2049C34.2567 18.8583 34.7234 19.9617 34.5451 21.0834C34.3701 22.2067 33.585 23.1166 32.4984 23.4566L25.7884 25.5566C25.6784 25.5916 25.5884 25.68 25.5534 25.7933L23.455 32.4966C23.115 33.5833 22.2049 34.3683 21.0799 34.545C20.9266 34.5716 20.7684 34.5833 20.6134 34.5833ZM13.8816 24.97C14.81 24.97 15.6768 25.4183 16.2118 26.1766L20.2417 31.8883C20.3867 32.0933 20.5884 32.095 20.6934 32.0783C20.8 32.0617 20.9933 31.9967 21.0699 31.7533L23.1683 25.0483C23.45 24.1533 24.15 23.4533 25.0433 23.1733L31.7533 21.0733C31.995 20.9983 32.06 20.8067 32.075 20.6983C32.0917 20.5933 32.0899 20.3934 31.8866 20.25L26.1717 16.215C25.4017 15.6717 24.9517 14.785 24.965 13.8434L25.0732 6.60999C25.0766 6.42999 24.9701 6.33832 24.8834 6.29332C24.7951 6.24832 24.6584 6.21669 24.5117 6.32669L18.7 10.6699C17.9466 11.2316 16.9666 11.3883 16.0799 11.0883L9.44336 8.84998C9.20003 8.76832 9.03826 8.88664 8.96159 8.9633C8.88326 9.03997 8.7666 9.20664 8.84827 9.44497L11.0866 16.0834C11.385 16.9734 11.2283 17.9533 10.6683 18.7033L6.32324 24.5167C6.21491 24.6634 6.24508 24.8 6.29008 24.89C6.33508 24.9784 6.49335 25.0766 6.60502 25.0799L13.8383 24.9716C13.8533 24.9699 13.8683 24.97 13.8816 24.97ZM35.8834 35.8834C36.3717 35.395 36.3717 34.6033 35.8834 34.115L30.8834 29.115C30.395 28.6266 29.6033 28.6266 29.115 29.115C28.6267 29.6033 28.6267 30.395 29.115 30.8834L34.115 35.8834C34.3583 36.1267 34.6784 36.25 34.9984 36.25C35.3184 36.25 35.64 36.1284 35.8834 35.8834Z" fill="#F54F35"/>
</svg>
